<svg width="215" height="32" viewBox="0 0 215 32" fill="none" xmlns="http://www.w3.org/2000/svg">
<path d="M7.54261 31H0.951705L10.9943 1.90909H18.9205L28.9489 31H22.358L15.071 8.55682H14.8438L7.54261 31ZM7.13068 19.5653H22.6989V24.3665H7.13068V19.5653ZM49.9822 15.4034L44.4425 15.7443C44.3478 15.2708 44.1442 14.8447 43.8317 14.4659C43.5192 14.0777 43.1072 13.7699 42.5959 13.5426C42.094 13.3059 41.4927 13.1875 40.7919 13.1875C39.8544 13.1875 39.0637 13.3864 38.4197 13.7841C37.7758 14.1723 37.4538 14.6932 37.4538 15.3466C37.4538 15.8674 37.6622 16.3078 38.0788 16.6676C38.4955 17.0275 39.2105 17.3163 40.2237 17.5341L44.1726 18.3295C46.2938 18.7652 47.8752 19.4659 48.9169 20.4318C49.9586 21.3977 50.4794 22.6667 50.4794 24.2386C50.4794 25.6686 50.058 26.9233 49.2152 28.0028C48.3819 29.0824 47.236 29.9252 45.7777 30.5312C44.3288 31.1278 42.6574 31.4261 40.7635 31.4261C37.8752 31.4261 35.5741 30.8248 33.8601 29.6222C32.1555 28.41 31.1565 26.7623 30.8629 24.679L36.8146 24.3665C36.9946 25.2472 37.4302 25.9195 38.1214 26.3835C38.8127 26.8381 39.6982 27.0653 40.7777 27.0653C41.8383 27.0653 42.6906 26.8617 43.3345 26.4545C43.9879 26.0379 44.3194 25.5028 44.3288 24.8494C44.3194 24.3002 44.0874 23.8504 43.6328 23.5C43.1783 23.1402 42.4775 22.8655 41.5305 22.6761L37.7521 21.9233C35.6214 21.4972 34.0353 20.7585 32.9936 19.7074C31.9614 18.6562 31.4453 17.3163 31.4453 15.6875C31.4453 14.286 31.8241 13.0786 32.5817 12.0653C33.3487 11.0521 34.4235 10.2708 35.8061 9.72159C37.1982 9.17235 38.8269 8.89773 40.6925 8.89773C43.4482 8.89773 45.6167 9.48011 47.1982 10.6449C48.7891 11.8097 49.7171 13.3958 49.9822 15.4034ZM65.8949 9.18182V13.7273H52.7557V9.18182H65.8949ZM55.7386 3.95455H61.7898V24.2955C61.7898 24.8542 61.875 25.2898 62.0455 25.6023C62.2159 25.9053 62.4527 26.1184 62.7557 26.2415C63.0682 26.3646 63.428 26.4261 63.8352 26.4261C64.1193 26.4261 64.4034 26.4025 64.6875 26.3551C64.9716 26.2983 65.1894 26.2557 65.3409 26.2273L66.2926 30.7301C65.9896 30.8248 65.5634 30.9337 65.0142 31.0568C64.465 31.1894 63.7973 31.2699 63.0114 31.2983C61.553 31.3551 60.2746 31.161 59.1761 30.7159C58.0871 30.2708 57.2396 29.5795 56.6335 28.642C56.0275 27.7045 55.7292 26.5208 55.7386 25.0909V3.95455ZM83.8281 21.7102V9.18182H89.8793V31H84.0696V27.0369H83.8423C83.3499 28.3153 82.5308 29.3428 81.3849 30.1193C80.2486 30.8958 78.8613 31.2841 77.223 31.2841C75.7647 31.2841 74.4815 30.9527 73.3736 30.2898C72.2656 29.6269 71.3991 28.6847 70.7741 27.4631C70.1586 26.2415 69.8461 24.7784 69.8366 23.0739V9.18182H75.8878V21.9943C75.8973 23.2822 76.2429 24.3002 76.9247 25.0483C77.6065 25.7964 78.5204 26.1705 79.6662 26.1705C80.3954 26.1705 81.0772 26.0047 81.7116 25.6733C82.3461 25.3324 82.8575 24.8305 83.2457 24.1676C83.6435 23.5047 83.8376 22.6856 83.8281 21.7102ZM94.7195 31V9.18182H100.586V12.9886H100.813C101.211 11.6345 101.879 10.6117 102.816 9.92045C103.754 9.2197 104.833 8.86932 106.055 8.86932C106.358 8.86932 106.684 8.88826 107.035 8.92614C107.385 8.96402 107.693 9.0161 107.958 9.08239V14.4517C107.674 14.3665 107.281 14.2907 106.779 14.2244C106.277 14.1581 105.818 14.125 105.401 14.125C104.511 14.125 103.716 14.3191 103.015 14.7074C102.324 15.0862 101.774 15.6165 101.367 16.2983C100.969 16.9801 100.771 17.7661 100.771 18.6562V31H94.7195ZM111.087 31V9.18182H117.138V31H111.087ZM114.126 6.36932C113.227 6.36932 112.455 6.07102 111.811 5.47443C111.177 4.86837 110.859 4.14394 110.859 3.30114C110.859 2.4678 111.177 1.75284 111.811 1.15625C112.455 0.550188 113.227 0.247158 114.126 0.247158C115.026 0.247158 115.793 0.550188 116.428 1.15625C117.071 1.75284 117.393 2.4678 117.393 3.30114C117.393 4.14394 117.071 4.86837 116.428 5.47443C115.793 6.07102 115.026 6.36932 114.126 6.36932ZM128.207 31.4119C126.815 31.4119 125.574 31.1705 124.485 30.6875C123.396 30.1951 122.534 29.4706 121.9 28.5142C121.275 27.5483 120.962 26.3456 120.962 24.9062C120.962 23.6941 121.185 22.6761 121.63 21.8523C122.075 21.0284 122.681 20.3655 123.448 19.8636C124.215 19.3617 125.086 18.983 126.062 18.7273C127.047 18.4716 128.079 18.2917 129.158 18.1875C130.427 18.0549 131.45 17.9318 132.227 17.8182C133.003 17.6951 133.567 17.5152 133.917 17.2784C134.267 17.0417 134.442 16.6913 134.442 16.2273V16.142C134.442 15.2424 134.158 14.5464 133.59 14.054C133.031 13.5616 132.236 13.3153 131.204 13.3153C130.115 13.3153 129.248 13.5568 128.604 14.0398C127.96 14.5133 127.534 15.1098 127.326 15.8295L121.729 15.375C122.013 14.0492 122.572 12.9034 123.406 11.9375C124.239 10.9621 125.314 10.214 126.63 9.69318C127.956 9.16288 129.49 8.89773 131.232 8.89773C132.444 8.89773 133.604 9.03977 134.712 9.32386C135.83 9.60795 136.819 10.0483 137.681 10.6449C138.552 11.2415 139.239 12.0085 139.741 12.946C140.243 13.8741 140.494 14.9867 140.494 16.2841V31H134.755V27.9744H134.585C134.234 28.6562 133.765 29.2576 133.178 29.7784C132.591 30.2898 131.886 30.6922 131.062 30.9858C130.238 31.2699 129.286 31.4119 128.207 31.4119ZM129.94 27.2358C130.83 27.2358 131.616 27.0606 132.298 26.7102C132.979 26.3504 133.514 25.8674 133.903 25.2614C134.291 24.6553 134.485 23.9687 134.485 23.2017V20.8864C134.296 21.0095 134.035 21.1231 133.704 21.2273C133.382 21.322 133.017 21.4119 132.61 21.4972C132.203 21.5729 131.796 21.6439 131.388 21.7102C130.981 21.767 130.612 21.8191 130.281 21.8665C129.57 21.9706 128.95 22.1364 128.42 22.3636C127.889 22.5909 127.478 22.8987 127.184 23.2869C126.89 23.6657 126.744 24.1392 126.744 24.7074C126.744 25.5312 127.042 26.161 127.638 26.5966C128.245 27.0227 129.012 27.2358 129.94 27.2358ZM154.56 31V1.90909H173.821V6.98011H160.71V13.9119H172.543V18.983H160.71V31H154.56ZM180.014 31.3693C179.077 31.3693 178.272 31.0379 177.599 30.375C176.937 29.7027 176.605 28.8977 176.605 27.9602C176.605 27.0322 176.937 26.2367 177.599 25.5739C178.272 24.911 179.077 24.5795 180.014 24.5795C180.923 24.5795 181.719 24.911 182.401 25.5739C183.082 26.2367 183.423 27.0322 183.423 27.9602C183.423 28.5852 183.262 29.1581 182.94 29.679C182.628 30.1903 182.216 30.6023 181.705 30.9148C181.193 31.2178 180.63 31.3693 180.014 31.3693ZM214.173 12.0938H207.951C207.837 11.2888 207.605 10.5739 207.255 9.94886C206.905 9.31439 206.455 8.77462 205.906 8.32955C205.356 7.88447 204.722 7.54356 204.002 7.30682C203.292 7.07008 202.52 6.9517 201.687 6.9517C200.181 6.9517 198.87 7.32576 197.752 8.07386C196.635 8.8125 195.768 9.89205 195.153 11.3125C194.537 12.7235 194.229 14.4375 194.229 16.4545C194.229 18.5284 194.537 20.2708 195.153 21.6818C195.778 23.0928 196.649 24.1581 197.766 24.8778C198.884 25.5975 200.176 25.9574 201.644 25.9574C202.468 25.9574 203.23 25.8485 203.931 25.6307C204.641 25.4129 205.271 25.0956 205.82 24.679C206.37 24.2528 206.824 23.7367 207.184 23.1307C207.553 22.5246 207.809 21.8333 207.951 21.0568L214.173 21.0852C214.012 22.4205 213.609 23.7083 212.965 24.9489C212.331 26.1799 211.474 27.2831 210.394 28.2585C209.324 29.2244 208.046 29.9915 206.559 30.5597C205.082 31.1184 203.41 31.3977 201.545 31.3977C198.95 31.3977 196.63 30.8106 194.585 29.6364C192.549 28.4621 190.939 26.7623 189.755 24.5369C188.581 22.3116 187.994 19.6174 187.994 16.4545C187.994 13.2822 188.59 10.5833 189.783 8.35795C190.977 6.13258 192.596 4.4375 194.641 3.27273C196.687 2.09848 198.988 1.51136 201.545 1.51136C203.23 1.51136 204.793 1.74811 206.232 2.22159C207.681 2.69508 208.964 3.38636 210.082 4.29545C211.199 5.19507 212.108 6.29829 212.809 7.60511C213.519 8.91193 213.974 10.4081 214.173 12.0938Z" fill="#4D2C02"/>
</svg>
